<svg width="18" height="18" viewBox="0 0 18 18" fill="none" xmlns="http://www.w3.org/2000/svg">
<g clip-path="url(#clip0)">
<path d="M17.8134 8.54508L16.5283 7.25996L9.45654 0.188242C9.20552 -0.0627472 8.79854 -0.0627472 8.54751 0.188242L1.47575 7.25996L0.189997 8.54576C-0.0566599 8.80116 -0.0496158 9.20813 0.20578 9.45479C0.454923 9.69542 0.849883 9.69542 1.09903 9.45479L1.28673 9.26577V17.3571C1.28673 17.7122 1.57456 18 1.92963 18H16.0731C16.4282 18 16.716 17.7122 16.716 17.3571V9.26577L16.9044 9.45415C17.1597 9.70081 17.5667 9.69372 17.8134 9.43836C18.054 9.18922 18.054 8.79422 17.8134 8.54508ZM10.93 16.7143H7.07273V11.5711H10.93V16.7143ZM15.4302 16.7143H12.2158V10.9283C12.2158 10.5732 11.928 10.2854 11.5729 10.2854H6.42984C6.07477 10.2854 5.78694 10.5732 5.78694 10.9283V16.7143H2.57253V7.98001L9.00135 1.55115L15.4302 7.98001V16.7143Z" fill="white"/>
</g>
<defs>
<clipPath id="clip0">
<rect width="18" height="18" fill="white"/>
</clipPath>
</defs>
</svg>
