<svg width="40" height="40" viewBox="0 0 40 40" fill="none" xmlns="http://www.w3.org/2000/svg">
<g clip-path="url(#clip0)">
<path d="M0.656518 19.9911H0.679851C1.03934 19.9914 1.33425 19.7065 1.3465 19.3471C1.70716 9.04438 10.3515 0.98473 20.6543 1.3453C24.6172 1.48405 28.433 2.8811 31.5485 5.33413H28.0006C27.6324 5.33413 27.3339 5.63262 27.3339 6.00078C27.3339 6.36894 27.6324 6.66743 28.0006 6.66743H33.3338H33.3431C33.3953 6.66318 33.4467 6.65293 33.4964 6.63677C33.5305 6.63185 33.5641 6.62452 33.5971 6.61477C33.6158 6.60677 33.6298 6.5901 33.6478 6.5801C33.7076 6.55085 33.7625 6.51235 33.8104 6.4661L33.8171 6.46144C33.834 6.43827 33.8494 6.41402 33.8631 6.38877C33.898 6.34627 33.9274 6.29944 33.9504 6.24944C33.9688 6.19628 33.98 6.14095 33.9838 6.08478C33.9914 6.05728 33.997 6.0292 34.0004 6.00078V0.66757C34.0004 0.299412 33.7019 0.000919064 33.3338 0.000919064C32.9656 0.000919064 32.6671 0.299412 32.6671 0.66757V4.52882C24.1256 -2.46952 11.5279 -1.21855 4.52951 7.32308C1.75183 10.7133 0.165029 14.9223 0.0131993 19.3025C0.000866214 19.6702 0.288776 19.9785 0.656518 19.9911Z" fill="black"/>
<path d="M6.05326 32.4061C5.8086 32.13 5.38645 32.1045 5.11029 32.3491C4.83412 32.5938 4.80863 33.0159 5.05329 33.2921C5.51219 33.8071 5.99701 34.2984 6.50592 34.7641C6.78266 35.007 7.20382 34.9795 7.44673 34.7028C7.68273 34.4339 7.66439 34.0267 7.40523 33.7801C6.93141 33.3455 6.48017 32.8869 6.05326 32.4061Z" fill="black"/>
<path d="M14.009 37.6848C13.3995 37.4784 12.8012 37.2405 12.2164 36.9721C11.8865 36.8087 11.4865 36.9437 11.3231 37.2736C11.1597 37.6035 11.2947 38.0035 11.6246 38.1669C11.6359 38.1725 11.6474 38.1778 11.6591 38.1828C12.286 38.4714 12.9279 38.7268 13.5817 38.9481C13.9305 39.0661 14.309 38.8789 14.427 38.5301C14.5451 38.1813 14.3579 37.8028 14.009 37.6848Z" fill="black"/>
<path d="M10.5072 36.0761V36.0754C9.95309 35.7472 9.41601 35.3912 8.89786 35.0088C8.60878 34.7807 8.18962 34.8302 7.96155 35.1193C7.73347 35.4084 7.78297 35.8275 8.07204 36.0556C8.08288 36.0641 8.09388 36.0723 8.10521 36.0802C8.65936 36.4904 9.2341 36.872 9.82717 37.2235C10.144 37.4112 10.5531 37.3067 10.7408 36.9898C10.9286 36.6729 10.824 36.2638 10.5072 36.0761Z" fill="black"/>
<path d="M4.84593 30.9015C4.47011 30.379 4.12128 29.8376 3.80062 29.2795C3.61654 28.9601 3.20838 28.8505 2.88897 29.0345C2.56956 29.2186 2.4599 29.6268 2.64398 29.9462C2.98747 30.5429 3.3613 31.1217 3.76395 31.6802C3.98503 31.9746 4.40294 32.034 4.69735 31.8129C4.98334 31.5982 5.04893 31.196 4.84593 30.9015Z" fill="black"/>
<path d="M2.98656 27.8341C2.98656 27.7411 2.96706 27.6492 2.92948 27.5643L2.92814 27.5596C2.66723 26.972 2.4369 26.3712 2.23816 25.7597C2.14149 25.4044 1.77509 25.1948 1.41984 25.2915C1.0646 25.3882 0.854939 25.7546 0.951687 26.1098C0.957354 26.1305 0.963937 26.1509 0.97152 26.171C1.18427 26.8277 1.43084 27.4731 1.71017 28.1043C1.81708 28.3456 2.05625 28.5011 2.32016 28.501C2.68832 28.5008 2.98664 28.2022 2.98656 27.8341Z" fill="black"/>
<path d="M1.22636 24.6844C1.22644 24.6844 1.22661 24.6844 1.22669 24.6844C1.58643 24.6077 1.81609 24.2542 1.74001 23.8944C1.60718 23.2646 1.5066 22.6285 1.43868 21.9884C1.39985 21.6221 1.07136 21.3566 0.705034 21.3954C0.338709 21.4343 0.0732148 21.7628 0.112047 22.1291C0.185046 22.8147 0.293126 23.496 0.43604 24.1704C0.512371 24.5306 0.866197 24.7607 1.22636 24.6844Z" fill="black"/>
<path d="M38.9339 24.0039C38.9336 24.0038 38.9334 24.0038 38.9331 24.0037C38.5758 23.9152 38.2144 24.133 38.1258 24.4904C37.9713 25.1154 37.7847 25.7319 37.5665 26.3377C37.4417 26.6841 37.6213 27.0661 37.9678 27.191C38.3143 27.3158 38.6963 27.1361 38.8211 26.7896C39.0551 26.1409 39.2553 25.4804 39.4211 24.811C39.5095 24.4536 39.2913 24.0923 38.9339 24.0039Z" fill="black"/>
<path d="M17.7676 38.5333C17.1287 38.4572 16.4941 38.3482 15.8664 38.2066C15.5072 38.1254 15.1502 38.3508 15.069 38.7099C14.9879 39.0691 15.2132 39.4261 15.5724 39.5072C16.2452 39.6589 16.9254 39.7757 17.6103 39.8572C17.6369 39.8605 17.6636 39.862 17.6903 39.8619C18.0585 39.8612 18.3563 39.562 18.3555 39.1938C18.3549 38.8567 18.1026 38.5731 17.7676 38.5333Z" fill="black"/>
<path d="M37.7046 27.8062C37.3732 27.6462 36.9749 27.785 36.8145 28.1162C36.5343 28.6957 36.2241 29.2603 35.8852 29.8075C35.6967 30.1238 35.8004 30.533 36.1167 30.7214C36.4253 30.9053 36.8242 30.8116 37.0185 30.5095C37.3813 29.9229 37.7136 29.3179 38.0138 28.6969C38.1744 28.3655 38.0359 27.9668 37.7046 27.8062Z" fill="black"/>
<path d="M35.7351 31.2734C35.4469 31.0443 35.0275 31.0921 34.7983 31.3803C34.7943 31.3853 34.7904 31.3904 34.7866 31.3955V31.3942C34.3933 31.9044 33.9739 32.3939 33.53 32.8608C33.2761 33.1277 33.2867 33.55 33.5536 33.8038C33.8205 34.0576 34.2428 34.047 34.4966 33.7801C34.9713 33.2799 35.4203 32.7559 35.8419 32.2102C36.0711 31.922 36.0232 31.5026 35.7351 31.2734Z" fill="black"/>
<path d="M39.3445 20.0318C38.9823 20.0133 38.6737 20.2919 38.6552 20.6541C38.6549 20.6608 38.6547 20.6677 38.6545 20.6744C38.6319 21.3177 38.576 21.9595 38.4872 22.597C38.4369 22.9613 38.6911 23.2973 39.0552 23.3483C39.0861 23.3528 39.1172 23.3551 39.1485 23.355C39.4807 23.3545 39.762 23.1094 39.8078 22.7804C39.9027 22.0975 39.9625 21.4101 39.9871 20.7211C39.9999 20.3533 39.7123 20.0448 39.3445 20.0318Z" fill="black"/>
<path d="M32.1333 34.1868V34.1888C31.6427 34.6076 31.1309 35.001 30.6 35.3674C30.2965 35.5773 30.2205 35.9935 30.4304 36.2971C30.6402 36.6007 31.0564 36.6766 31.36 36.4667C31.9278 36.0725 32.4751 35.6498 33 35.2001C33.2798 34.9608 33.3127 34.5399 33.0733 34.2601C32.8341 33.9803 32.4132 33.9475 32.1333 34.1868Z" fill="black"/>
<path d="M25.4075 37.872C24.7914 38.0576 24.1661 38.2111 23.5342 38.332C23.1726 38.4016 22.9358 38.751 23.0054 39.1125C23.0657 39.4259 23.3397 39.6527 23.6588 39.6533C23.7011 39.6534 23.7432 39.6496 23.7848 39.6419C24.4623 39.5124 25.1325 39.3476 25.7928 39.1479C26.1424 39.0327 26.3325 38.6558 26.2173 38.3061C26.1061 37.9688 25.75 37.7779 25.4075 37.872Z" fill="black"/>
<path d="M21.6569 38.5943C21.6446 38.5949 21.6325 38.596 21.6203 38.5974L21.6236 38.6C21.0903 38.6454 20.5443 38.6667 20.0003 38.6667H19.6957C19.3321 38.6719 19.0349 38.9582 19.0163 39.3213C19.0097 39.6895 19.3027 39.9933 19.6708 40C19.6708 40 19.6709 40 19.671 40H20.0003C20.583 40 21.167 39.974 21.7336 39.9253C22.1012 39.9042 22.382 39.589 22.3608 39.2214C22.3395 38.8538 22.0244 38.573 21.6569 38.5943Z" fill="black"/>
<path d="M28.9593 36.3794H28.96C28.3956 36.6885 27.8157 36.9684 27.2227 37.2181C26.8815 37.3565 26.7171 37.7452 26.8554 38.0864C26.9938 38.4275 27.3826 38.592 27.7237 38.4536C27.7287 38.4516 27.7337 38.4495 27.7386 38.4474C28.3741 38.18 28.9953 37.8801 29.5999 37.5487C29.9228 37.3718 30.0411 36.9667 29.8642 36.6438C29.6875 36.3208 29.2822 36.2025 28.9593 36.3794Z" fill="black"/>
<path d="M20.0002 6.00079C12.2683 6.00079 6.00049 12.2686 6.00049 20.0005C6.00049 27.7323 12.2683 34.0001 20.0002 34.0001C27.732 34.0001 33.9998 27.7323 33.9998 20.0005C33.9911 12.2723 27.7283 6.00963 20.0002 6.00079ZM30.6666 20.6671H32.6325C32.2862 27.1267 27.1264 32.2865 20.6668 32.6328V30.6669C20.6668 30.2987 20.3683 30.0002 20.0002 30.0002C19.632 30.0002 19.3335 30.2987 19.3335 30.6669V32.6328C12.8739 32.2865 7.71412 27.1267 7.36779 20.6671H9.33375C9.7019 20.6671 10.0004 20.3686 10.0004 20.0005C10.0004 19.6323 9.7019 19.3338 9.33375 19.3338H7.36779C7.71412 12.8742 12.8739 7.71442 19.3335 7.36809V9.33405C19.3335 9.70221 19.632 10.0007 20.0002 10.0007C20.3683 10.0007 20.6668 9.70221 20.6668 9.33405V7.36809C27.1264 7.71442 32.2862 12.8742 32.6325 19.3338H30.6666C30.2984 19.3338 29.9999 19.6323 29.9999 20.0005C29.9999 20.3686 30.2984 20.6671 30.6666 20.6671Z" fill="black"/>
<path d="M20.667 18.1231V12.0006C20.667 11.6324 20.3685 11.3339 20.0003 11.3339C19.6322 11.3339 19.3337 11.6324 19.3337 12.0006V18.1231C18.7691 18.3248 18.3247 18.7692 18.1231 19.3337H14.6671C14.299 19.3337 14.0005 19.6322 14.0005 20.0004C14.0005 20.3685 14.299 20.667 14.6671 20.667H18.1231C18.4884 21.7067 19.6274 22.2533 20.667 21.888C21.7066 21.5227 22.2533 20.3837 21.888 19.3441C21.6873 18.7729 21.2382 18.3238 20.667 18.1231ZM20.0003 20.667C19.6322 20.667 19.3337 20.3685 19.3337 20.0004C19.3337 19.6322 19.6322 19.3337 20.0003 19.3337C20.3685 19.3337 20.667 19.6322 20.667 20.0004C20.667 20.3685 20.3686 20.667 20.0003 20.667Z" fill="black"/>
</g>
<defs>
<clipPath id="clip0">
<rect width="40" height="40" fill="white"/>
</clipPath>
</defs>
</svg>
