<svg width="22" height="22" viewBox="0 0 22 22" fill="none" xmlns="http://www.w3.org/2000/svg">
<path d="M20.2009 2.70007C19.0629 1.47696 17.4684 0.781028 15.7978 0.778448C14.1259 0.780383 12.5297 1.47595 11.39 2.69929L11.0016 3.10973L10.6132 2.69929C8.35176 0.265366 4.54536 0.12559 2.11148 2.38703C2.00363 2.48728 1.89947 2.5914 1.79922 2.69929C-0.599739 5.28686 -0.599739 9.28583 1.79922 11.8734L10.4308 20.976C10.7294 21.2912 11.2271 21.3047 11.5423 21.0061C11.5527 20.9963 11.5627 20.9863 11.5725 20.976L20.2009 11.8734C22.5997 9.28611 22.5997 5.28737 20.2009 2.70007ZM19.0632 10.7907H19.0624L11.0016 19.2926L2.9401 10.7907C1.10743 8.81357 1.10743 5.75834 2.9401 3.7812C4.60438 1.97737 7.41589 1.86427 9.21972 3.52855C9.3073 3.60936 9.39156 3.69362 9.47236 3.7812L10.4308 4.79235C10.7467 5.10617 11.2566 5.10617 11.5725 4.79235L12.5309 3.78198C14.1952 1.97816 17.0067 1.86506 18.8105 3.52934C18.8981 3.61014 18.9824 3.6944 19.0632 3.78198C20.9118 5.76226 20.9253 8.82306 19.0632 10.7907Z" fill="#FF0033"/>
</svg>
