<svg width="22" height="22" viewBox="0 0 22 22" fill="none" xmlns="http://www.w3.org/2000/svg">
<path d="M20.2009 2.70007C19.0629 1.47696 17.4684 0.781028 15.7978 0.778448C14.1259 0.780383 12.5297 1.47595 11.39 2.69929L11.0016 3.10973L10.6132 2.69929C8.35176 0.265366 4.54536 0.12559 2.11148 2.38703C2.00363 2.48728 1.89947 2.5914 1.79922 2.69929C-0.599739 5.28686 -0.599739 9.28583 1.79922 11.8734L10.4308 20.976C10.7294 21.2912 11.2271 21.3047 11.5423 21.0061C11.5527 20.9963 11.5627 20.9863 11.5725 20.976L20.2009 11.8734C22.5997 9.28611 22.5997 5.28737 20.2009 2.70007Z" fill="#FF0033"/>
</svg>
