<svg width="22" height="22" viewBox="0 0 22 22" fill="none" xmlns="http://www.w3.org/2000/svg">
<g clip-path="url(#clip0)">
<path d="M21.7796 20.6695L13.9524 12.8423C16.7016 9.47997 16.2045 4.52559 12.8422 1.77637C9.47989 -0.972843 4.52547 -0.475758 1.77625 2.88657C-0.972965 6.2489 -0.47588 11.2033 2.88645 13.9525C5.7826 16.3206 9.94606 16.3206 12.8422 13.9525L20.6694 21.7798C20.9813 22.081 21.4784 22.0723 21.7796 21.7604C22.0735 21.4562 22.0735 20.9738 21.7796 20.6695ZM7.87689 14.1582C4.40949 14.1543 1.59955 11.3444 1.59568 7.87702C1.59568 4.408 4.40788 1.5958 7.87689 1.5958C11.3459 1.5958 14.1581 4.408 14.1581 7.87702C14.1581 11.346 11.3459 14.1582 7.87689 14.1582Z" fill="white"/>
<path d="M11.8027 7.09189H8.66206V3.95131C8.66206 3.51766 8.31053 3.16614 7.87689 3.16614C7.44325 3.16614 7.09172 3.51766 7.09172 3.95131V7.09194H3.95118C3.51754 7.09194 3.16602 7.44346 3.16602 7.8771C3.16602 8.31075 3.51754 8.66227 3.95118 8.66227H7.09181V11.8029C7.09181 12.2365 7.44334 12.5881 7.87698 12.5881C8.31063 12.5881 8.66215 12.2365 8.66215 11.8029V8.66227H11.8028C12.2364 8.66227 12.5879 8.31075 12.5879 7.8771C12.5879 7.44346 12.2363 7.09189 11.8027 7.09189Z" fill="white"/>
</g>
<defs>
<clipPath id="clip0">
<rect width="22" height="22" fill="white"/>
</clipPath>
</defs>
</svg>
