<svg width="1440" height="290" viewBox="0 0 1440 290" fill="none" xmlns="http://www.w3.org/2000/svg">
<path d="M1432.97 127.197C1430.01 128.227 1426.97 126.481 1423.94 126.218C1418.93 125.782 1414.14 129.386 1409.14 129.941C1401.91 130.741 1393.8 125.594 1386.73 128.077C1375.08 132.173 1363.68 117.258 1351.78 118.965C1341.61 120.424 1333.15 130.929 1323.05 133.185C1315.52 134.867 1307.72 133.561 1300.6 129.428C1296.76 127.199 1293.08 124.15 1289.05 122.928C1285.95 121.987 1282.71 122.176 1279.67 123.473C1275.22 125.368 1271.18 129.583 1266.59 130.28C1261.77 131.012 1256.97 127.761 1252.16 128.566C1249.7 128.977 1247.37 130.433 1245 131.557C1240.4 133.741 1235.18 132.835 1230.46 134.34C1222.14 136.994 1213.8 129.446 1205.31 129.881C1202.88 130.006 1200.48 130.79 1198.05 131.185C1192.78 132.046 1187.37 131.035 1182.38 128.254C1181.15 127.567 1179.91 126.765 1178.61 126.626C1177.38 126.497 1176.17 126.956 1174.97 127.319C1169.79 128.884 1164.39 128.69 1159.25 126.756C1156.36 125.666 1153.51 124.022 1150.54 123.954C1144.79 123.824 1139.76 128.341 1134.03 129.048C1129.98 129.546 1125.94 130.045 1121.9 130.544C1120.95 130.659 1120 130.781 1119.12 131.311C1117.14 132.505 1115.92 135.493 1114.53 137.979C1113.11 140.526 1111.3 142.748 1109.18 143.439C1107.08 144.121 1104.9 143.254 1102.76 143.366C1098.2 143.603 1094.22 148.17 1089.78 149.731C1084.9 151.44 1079.53 149.237 1075.84 144.02C1073.91 141.277 1072.38 137.727 1070.05 135.851C1065.3 132.026 1059.14 136.522 1054.28 133.024C1051.76 131.202 1049.99 127.46 1047.49 125.54C1040.56 120.197 1032.07 130.92 1024.49 128.355C1018.64 126.372 1011.86 127.411 1006.48 131.496C1000.9 135.737 995.223 140.023 989.106 141.78C982.989 143.537 976.264 142.474 971.253 136.769C967.954 133.013 965.001 127.115 960.908 127.384C959.114 127.502 957.467 128.856 955.79 129.852C951.939 132.138 947.121 132.31 944.141 127.9C943.402 126.806 942.796 125.461 941.918 124.649C940.394 123.24 938.406 123.784 936.823 125.03C935.241 126.274 933.894 128.139 932.343 129.477C927.992 133.23 922.636 132.421 917.745 130.96C914.176 129.895 910.657 128.472 907.181 126.837C907.175 130.261 907.452 133.745 908.054 137.062C920.817 148.921 937.114 151.326 951.06 143.211C954.193 141.388 957.356 139.031 960.698 139.32C966.502 139.823 970.722 147.92 976.081 151.406C981.194 154.734 987.099 153.638 992.352 150.879C995.134 149.419 997.906 147.487 1000.84 147.503C1004.13 147.521 1007.2 149.975 1010.46 150.585C1016.82 151.773 1022.7 145.974 1028.57 142.026C1034.45 138.078 1042.28 136.522 1046.41 144.09C1047.82 146.685 1048.78 150.302 1050.87 151.322C1051.98 151.862 1053.17 151.526 1054.33 151.413C1056.32 151.221 1058.38 151.745 1060.1 153.298C1062.92 155.839 1064.46 160.674 1065.82 165.261C1067.17 169.847 1068.63 174.713 1071.37 177.457C1074.1 180.201 1078.52 179.536 1079.78 174.889C1081.35 173.478 1083.28 173.81 1084.91 175.054C1086.54 176.297 1087.94 178.176 1089.52 179.568C1094.85 184.268 1102.22 182.421 1106.32 175.361C1108.87 170.964 1110.74 164.414 1114.53 163.72C1116.56 163.349 1118.67 164.89 1120.61 163.901C1121.57 163.411 1122.36 162.348 1123.09 161.252C1125.02 158.339 1126.68 155.008 1128.01 151.387C1128.86 149.091 1129.59 146.642 1130.77 144.725C1132.59 141.757 1135.25 140.431 1137.82 139.479C1139.65 138.801 1141.54 138.254 1143.41 138.529C1145.52 138.836 1147.5 140.16 1149.47 141.383C1153.94 144.169 1159.14 146.463 1163.43 143.083C1165.53 141.433 1167.34 138.478 1169.69 138.307C1171.65 138.166 1173.62 139.023 1175.4 140.295C1180.09 143.647 1185.45 144.02 1190.58 143.187C1193.26 142.752 1195.93 142.004 1198.63 141.929C1203.27 141.801 1207.93 143.721 1211.92 147.406C1213.72 149.069 1215.38 151.078 1217.23 152.583C1221.44 156.003 1226.58 156.579 1231.06 154.139C1234.54 152.25 1238.16 148.608 1241.59 150.689C1243.37 151.77 1244.62 154.194 1246.03 156.187C1247.45 158.179 1249.37 159.871 1251.19 158.991C1255.92 156.708 1261.19 155.762 1264.77 150.465C1267.74 146.074 1270.36 139.729 1274.47 139.592C1278.7 139.45 1281.56 146.031 1285.27 149.155C1287.72 151.21 1290.67 151.744 1293.36 150.614C1296.71 149.2 1300.06 145.301 1303.31 147.218C1305.7 148.627 1306.98 152.74 1309.22 154.658C1311.37 156.505 1314.05 156.016 1316.41 154.913C1318.76 153.811 1321.04 152.142 1323.49 151.746C1327.28 151.132 1331.22 153.613 1334.85 151.805C1340.06 149.211 1342.32 139.016 1347.43 135.961C1350.74 133.975 1354.62 135.58 1357.45 138.915C1359 140.741 1360.3 143.04 1361.86 144.835C1365.31 148.789 1370.01 149.975 1374.09 147.92C1378.04 145.928 1382.42 143.592 1386.22 140.95C1390.01 138.308 1394.41 136.323 1398.26 138.76C1399.28 139.404 1400.22 140.34 1401.26 140.872C1405.69 143.123 1410.42 137.637 1415.01 138.853C1417.8 139.591 1420.09 142.689 1422.78 144.027C1426.35 145.801 1430.54 144.094 1433.08 139.83C1433.7 138.796 1434.23 137.62 1434.95 136.758C1437.35 133.892 1441.21 135.043 1443.87 133.502C1444.99 127.947 1445.49 122.315 1445.44 116.688C1443.59 117.067 1441.75 118.612 1440.2 120.385C1437.92 123.009 1435.75 126.229 1432.97 127.197Z" fill="#D1E8F4"/>
<path d="M1433.08 139.83C1430.54 144.094 1426.35 145.8 1422.78 144.026C1420.09 142.689 1417.8 139.59 1415.01 138.853C1410.42 137.637 1405.69 143.123 1401.26 140.872C1400.22 140.34 1399.28 139.404 1398.26 138.76C1394.41 136.323 1390.01 138.308 1386.22 140.95C1382.42 143.592 1378.04 145.928 1374.09 147.92C1370.01 149.975 1365.31 148.788 1361.86 144.835C1360.3 143.04 1359 140.741 1357.45 138.915C1354.62 135.58 1350.74 133.974 1347.43 135.961C1342.32 139.016 1340.06 149.211 1334.85 151.805C1331.22 153.613 1327.28 151.132 1323.49 151.746C1321.04 152.142 1318.76 153.811 1316.41 154.913C1314.05 156.016 1311.37 156.504 1309.22 154.658C1306.98 152.74 1305.7 148.627 1303.31 147.218C1300.06 145.301 1296.72 149.2 1293.36 150.614C1290.68 151.744 1287.72 151.21 1285.27 149.155C1281.56 146.031 1278.7 139.45 1274.47 139.592C1270.36 139.729 1267.74 146.074 1264.77 150.465C1261.2 155.762 1255.92 156.708 1251.19 158.991C1249.37 159.871 1247.45 158.178 1246.04 156.186C1244.62 154.194 1243.37 151.77 1241.59 150.689C1238.16 148.608 1234.54 152.25 1231.07 154.139C1226.58 156.579 1221.44 156.003 1217.23 152.583C1215.38 151.078 1213.72 149.069 1211.92 147.406C1207.93 143.721 1203.28 141.801 1198.63 141.929C1195.93 142.004 1193.26 142.752 1190.58 143.187C1185.45 144.02 1180.09 143.647 1175.4 140.295C1173.62 139.023 1171.65 138.166 1169.69 138.307C1167.34 138.478 1165.53 141.433 1163.43 143.083C1159.14 146.463 1153.94 144.169 1149.47 141.383C1147.5 140.16 1145.52 138.836 1143.42 138.529C1141.54 138.254 1139.66 138.801 1137.82 139.479C1135.25 140.431 1132.59 141.757 1130.77 144.725C1129.59 146.642 1128.86 149.091 1128.01 151.387C1126.68 155.008 1125.02 158.339 1123.09 161.252C1122.36 162.348 1121.57 163.411 1120.61 163.901C1118.67 164.89 1116.56 163.349 1114.53 163.72C1110.74 164.414 1108.87 170.964 1106.32 175.361C1102.22 182.421 1094.85 184.268 1089.52 179.568C1087.94 178.176 1086.55 176.297 1084.91 175.054C1083.28 173.81 1081.35 173.477 1079.78 174.889C1078.52 179.536 1074.1 180.201 1071.37 177.457C1068.63 174.713 1067.17 169.847 1065.82 165.261C1064.46 160.674 1062.92 155.839 1060.1 153.298C1058.38 151.745 1056.32 151.221 1054.33 151.413C1053.17 151.526 1051.98 151.862 1050.88 151.322C1048.78 150.302 1047.82 146.685 1046.41 144.09C1042.28 136.522 1034.45 138.078 1028.58 142.025C1022.7 145.974 1016.82 151.773 1010.46 150.585C1007.2 149.975 1004.13 147.521 1000.84 147.503C997.907 147.487 995.135 149.419 992.352 150.879C987.099 153.638 981.195 154.734 976.081 151.406C970.723 147.92 966.503 139.823 960.698 139.32C957.356 139.031 954.194 141.388 951.061 143.211C937.114 151.326 920.818 148.921 908.055 137.062C909.096 142.794 911.081 148.022 914.141 151.556C917.891 155.886 922.825 157.267 926.475 161.795C931.284 167.763 932.917 178.004 933.109 187.537C933.301 197.071 932.359 206.691 933.329 216.109C933.634 219.083 934.459 222.534 936.361 223.169C939.47 224.207 940.829 217.288 940.64 212.376C940.151 199.704 938.794 186.896 940.279 174.411C940.561 172.032 940.984 169.57 942.051 167.801C943.118 166.032 945.009 165.239 946.28 166.649C947.938 168.487 947.571 172.427 948.402 175.309C949.623 179.543 953.966 180.418 955.847 176.806C957.449 173.729 957.505 168.353 959.952 167.213C961.64 166.426 963.294 168.349 964.967 169.208C970.545 172.077 976.69 162.997 982.14 166.407C985.415 168.455 986.947 174.176 988.002 179.39C992.033 199.305 994.041 220.193 993.931 241.061C993.875 251.918 993.251 262.85 994.289 273.59C994.514 275.928 995.107 278.721 996.609 279.163C998.763 279.794 999.796 275.219 999.862 271.829C1000.43 243.112 996.184 214.296 998.47 185.784C998.818 181.456 999.341 177.042 1000.8 173.307C1002.25 169.571 1004.82 166.607 1007.64 166.67C1012.06 166.77 1015.65 173.923 1020.03 173.023C1022.44 172.528 1024.32 169.699 1026.31 167.542C1034.35 158.828 1046.65 161.521 1052.81 173.346C1055.22 177.971 1055.94 185.614 1058.02 190.61C1060.1 195.606 1063.57 199.621 1067.41 199.601C1070.18 199.586 1072.81 197.531 1075.58 197.573C1080.8 197.652 1084.79 205.153 1086.43 212.822C1088.07 220.49 1088.16 228.799 1089.83 236.45C1092 246.34 1098.18 255.865 1105.65 249.249C1108.62 246.622 1110.63 242.052 1111.72 237.034C1113.39 229.283 1114.62 221.302 1115.39 213.217C1115.62 210.794 1116.78 209.044 1118.28 208.253C1120.63 207.011 1122.48 202.54 1123.08 198.414C1123.88 192.914 1123.97 186.513 1126.74 182.849C1128.06 181.102 1129.82 180.274 1131.08 178.408C1133.71 174.488 1133.11 167.936 1133.29 162.294C1133.48 156.651 1136.18 149.748 1139.65 151.488C1141.29 150.69 1143.23 152.549 1144 154.925C1144.76 157.301 1144.77 160.071 1144.75 162.726C1144.66 179.671 1144.57 196.615 1144.47 213.561C1146.07 214.605 1147.96 212.809 1148.73 210.398C1149.49 207.988 1149.44 205.178 1149.41 202.494C1149.31 191.853 1149.87 181.197 1151.08 170.722C1151.88 163.858 1153.34 156.219 1158.23 154.225C1160.82 153.17 1163.61 154.282 1165.78 156.712C1170.26 161.741 1171.75 170.097 1172.64 178.136C1175.41 203.319 1173.65 229.28 1176.25 254.508C1176.4 255.977 1176.59 257.538 1177.27 258.603C1178.51 260.579 1180.83 259.724 1181.96 257.582C1183.09 255.439 1183.32 252.522 1183.46 249.768C1184.95 219.582 1179.34 188.442 1184.57 159.321C1185.11 156.288 1187.67 154.996 1189.12 157.197C1190.51 159.299 1190.6 162.652 1190.61 165.657C1190.61 171.963 1190.62 178.269 1190.63 184.574C1190.63 185.977 1190.65 187.458 1191.11 188.661C1192.62 192.541 1196.85 189.334 1197.5 184.921C1198.16 180.4 1196.87 175.73 1197.05 171.101C1197.19 167.557 1198.92 164.487 1201.17 163.782C1204.83 162.633 1202.25 170.132 1203.01 173.993C1203.64 177.204 1205.01 179.303 1206.77 177.337C1208.82 175.044 1207.94 169.331 1209.97 166.994C1211.63 165.084 1214.05 166.847 1215.41 169.255C1216.78 171.664 1217.72 174.756 1219.5 176.404C1221.96 178.692 1225.15 177.417 1227.72 175.428C1230.29 173.439 1232.75 170.747 1235.6 170.244C1240.4 169.396 1244.59 174.864 1249.1 177.569C1254.71 180.932 1261.35 179.834 1266.37 174.713C1268.12 172.938 1270.06 170.592 1272.05 171.557C1274.46 169.139 1278.46 172.383 1279.92 176.219C1281.37 180.056 1281.47 184.706 1281.79 189.123C1282.18 194.41 1283.14 200.172 1286.6 202.455C1288.68 203.831 1291.2 203.249 1292.94 200.991C1295.7 197.392 1295.57 191.903 1295.24 186.915C1294.98 182.935 1294.66 178.729 1295.73 175.085C1296.79 171.44 1299.86 168.879 1302.04 171.015C1303.74 172.673 1304.13 176.175 1304.35 179.261C1305.58 196.394 1306.51 213.578 1307.14 230.79C1307.26 234.179 1307.87 238.484 1310.04 239.021C1312.16 239.548 1313.63 235.849 1314.23 232.653C1317.22 216.611 1314.02 199.381 1315.2 182.785C1315.46 179.189 1316.15 175.135 1318.25 173.524C1321.15 171.291 1324.35 175.17 1327.46 176.58C1333.15 179.158 1338.82 173.244 1343.77 168.185C1348.71 163.126 1355.3 158.633 1360.26 163.663C1364.23 167.687 1365.13 175.849 1366.8 182.714C1369.56 194.063 1380.04 193.91 1382.77 182.546C1382.82 182.342 1382.87 182.138 1382.91 181.939C1384.17 176.481 1384.87 170.524 1387.82 166.471C1389.33 164.395 1391.42 163.286 1393.36 164.159C1396.84 165.728 1397.52 171.723 1397.75 176.82C1399.41 212.906 1396.95 249.362 1400.01 285.226C1400.13 286.688 1400.31 288.279 1401.03 289.246C1402.07 290.639 1403.79 289.963 1404.69 288.356C1405.22 287.407 1405.53 286.246 1405.73 285.018C1407.1 276.516 1406.79 267.589 1405.62 259.019C1401.49 228.924 1402.94 198.195 1404.4 167.759C1404.45 166.626 1404.54 165.371 1405.09 164.618C1406.42 162.796 1408.28 165.784 1408.84 168.393C1409.7 172.434 1410.12 176.701 1410.07 180.956C1410.02 185.542 1410.57 192.146 1413.53 191.82C1414.96 191.662 1416.01 189.59 1416.5 187.5C1417.72 182.302 1416.71 176.564 1416.67 171.031C1416.65 169.045 1416.87 166.919 1417.31 164.984C1418.32 160.578 1422.43 161.038 1423.02 165.62C1424.71 178.549 1424.99 191.913 1423.85 204.983C1423.56 208.312 1423.19 211.787 1423.9 214.96C1424.61 218.133 1426.86 220.775 1428.91 219.656C1436.56 198.408 1425.1 168.519 1437.42 149.538C1439.82 145.844 1441.96 141.701 1443.19 136.819C1443.47 135.721 1443.65 134.608 1443.87 133.502C1441.21 135.043 1437.35 133.891 1434.95 136.758C1434.23 137.62 1433.7 138.796 1433.08 139.83Z" fill="#A8D4EB"/>
<path d="M1438.79 80.6081C1435.15 74.4367 1428.78 76.1924 1423.4 76.9488C1398.64 80.4343 1374.8 51.9055 1350.38 59.1797C1335.41 63.6395 1321.61 72.7343 1306.76 77.9721C1298.4 80.917 1289.71 80.8181 1281.33 78.0368C1258.52 70.464 1235.31 65.8054 1212.02 64.1188C1197.63 63.0763 1183.1 63.183 1168.99 67.627C1157.25 71.3248 1145.91 77.9914 1134.03 80.4354C1124.29 82.4388 1114.41 81.5575 1104.6 82.3468C1091.46 83.4053 1078.43 87.4654 1065.27 87.4393C1049.26 87.4075 1033.42 81.3304 1017.41 81.6506C994.651 82.1072 972.481 95.463 949.734 94.2023C936.359 93.4619 921.578 88.1934 910.595 100.022C908.647 108.969 907.243 117.048 907.173 126.49C907.172 126.605 907.181 126.722 907.181 126.837C910.658 128.472 914.177 129.895 917.745 130.96C922.637 132.421 927.993 133.23 932.344 129.477C933.895 128.139 935.241 126.275 936.823 125.03C938.406 123.784 940.394 123.24 941.918 124.649C942.796 125.461 943.402 126.806 944.142 127.9C947.122 132.31 951.94 132.138 955.791 129.852C957.468 128.856 959.114 127.502 960.909 127.384C965.002 127.115 967.954 133.013 971.254 136.77C976.264 142.474 982.989 143.537 989.107 141.78C995.224 140.023 1000.9 135.737 1006.48 131.497C1011.86 127.411 1018.64 126.372 1024.5 128.355C1032.07 130.92 1040.56 120.197 1047.49 125.54C1049.99 127.46 1051.76 131.202 1054.28 133.024C1059.14 136.522 1065.3 132.026 1070.05 135.851C1072.38 137.727 1073.91 141.277 1075.85 144.02C1079.53 149.237 1084.91 151.44 1089.78 149.731C1094.22 148.17 1098.2 143.603 1102.76 143.366C1104.9 143.254 1107.08 144.121 1109.18 143.439C1111.31 142.748 1113.11 140.526 1114.53 137.979C1115.92 135.493 1117.14 132.505 1119.12 131.311C1120 130.781 1120.95 130.659 1121.9 130.544C1125.94 130.045 1129.98 129.546 1134.03 129.048C1139.76 128.341 1144.79 123.824 1150.54 123.954C1153.52 124.022 1156.37 125.666 1159.26 126.756C1164.39 128.69 1169.79 128.884 1174.97 127.319C1176.17 126.956 1177.38 126.497 1178.61 126.627C1179.91 126.765 1181.15 127.567 1182.38 128.254C1187.37 131.035 1192.78 132.046 1198.05 131.185C1200.48 130.79 1202.88 130.006 1205.31 129.881C1213.8 129.446 1222.14 136.994 1230.46 134.34C1235.18 132.836 1240.4 133.741 1245 131.557C1247.37 130.433 1249.7 128.977 1252.16 128.566C1256.97 127.761 1261.77 131.012 1266.59 130.28C1271.18 129.583 1275.22 125.368 1279.67 123.473C1282.71 122.176 1285.95 121.987 1289.05 122.928C1293.08 124.15 1296.76 127.199 1300.6 129.428C1307.72 133.561 1315.52 134.867 1323.05 133.185C1333.15 130.929 1341.61 120.424 1351.78 118.965C1363.68 117.258 1375.08 132.173 1386.74 128.077C1393.8 125.594 1401.92 130.741 1409.14 129.941C1414.14 129.386 1418.93 125.782 1423.94 126.218C1426.97 126.481 1430.01 128.227 1432.97 127.197C1435.75 126.229 1437.92 123.009 1440.2 120.385C1441.75 118.612 1443.59 117.067 1445.44 116.688C1445.36 106.459 1443.63 96.2829 1441.08 86.7964C1440.49 84.592 1439.83 82.373 1438.79 80.6081Z" fill="white"/>
<path d="M29.4831 102.967C33.5207 100.338 37.6794 96.8181 42.0077 97.8675C43.6245 98.2604 45.1465 99.2803 46.7259 99.9413C52.6563 102.424 58.9398 99.7459 65.0788 100.125C66.86 100.235 68.664 100.618 70.2866 101.76C72.0532 103.005 73.5143 105.083 75.1818 106.621C78.5027 109.686 82.483 110.483 86.3458 110.75C88.6271 110.908 91.0016 110.875 93.0699 109.378C95.2719 107.785 97.2073 104.54 99.6259 104.916C102.503 105.363 105.086 105.791 107.911 106.752C112.311 108.25 116.903 105.404 121.369 106.328C123.608 106.791 125.748 108.193 128.002 108.428C130.404 108.681 132.771 107.595 135.076 106.52C137.747 105.277 140.433 104.023 142.929 102.096C144.247 101.078 145.504 99.8777 146.84 98.9146C150.828 96.0367 155.473 95.4008 159.727 97.1509C162.039 98.1026 164.221 99.7244 166.548 100.586C172.225 102.687 178.076 100.096 183.561 96.6864C179.398 86.5582 172.261 79.4611 164.558 77.9609C161.489 77.3635 158.168 77.5043 155.615 74.8048C154.511 73.6384 153.644 72.0224 152.793 70.4279C150.532 66.194 148.271 61.9589 146.01 57.725C144.829 55.5138 143.615 53.2583 142.019 51.7978C139.522 49.5151 136.465 49.4855 133.567 49.2833C129.103 48.971 124.488 48.0022 120.717 44.2953C118.614 42.2261 116.873 39.3982 115.212 36.5226C109.838 27.219 104.982 17.009 98.5421 9.49858C92.1007 1.98932 83.5139 -2.52969 75.8845 1.51795C63.995 7.8245 57.7812 31.6834 45.6472 36.7509C38.9606 39.5436 31.0008 35.7162 25.4515 42.1273C20.4682 47.8841 19.9388 59.1537 16.2294 66.8754C12.0436 75.5885 4.47955 78.5709 -0.729836 85.845C-4.24975 90.7603 -6.43555 97.2758 -7.82031 104.341C4.1587 111.012 17.7428 110.617 29.4831 102.967Z" fill="white"/>
<path d="M3.16907 118.633C5.1493 119.095 6.98264 120.503 8.92395 121.267C11.9784 122.466 15.1848 122.031 18.3368 122.004C27.7813 121.925 38.0135 125.331 46.1217 117.838C49.7796 114.458 53.572 108.798 57.589 110.998C60.1045 112.375 61.5553 116.464 63.8373 118.606C68.7698 123.237 75.5512 117.428 80.7958 121.147C81.7782 121.844 82.6593 122.851 83.6491 123.52C90.7873 128.337 99.0489 113.979 106.128 118.997C107.756 120.151 109.034 122.207 110.526 123.739C114.854 128.188 120.46 127.851 125.646 127.352C137.741 126.188 148.653 112.425 160.766 111.915C165.605 111.712 170.343 113.796 175.108 115.108C179.214 116.238 183.576 116.735 187.504 114.81C187.151 108.81 186 102.922 184.017 97.7326C183.878 97.3703 183.707 97.0421 183.561 96.6867C178.076 100.096 172.225 102.688 166.548 100.587C164.222 99.7246 162.039 98.1029 159.727 97.1511C155.473 95.401 150.828 96.0369 146.84 98.9148C145.505 99.8779 144.248 101.078 142.93 102.096C140.433 104.023 137.747 105.277 135.076 106.521C132.771 107.595 130.404 108.681 128.002 108.429C125.748 108.194 123.608 106.791 121.369 106.329C116.903 105.404 112.311 108.25 107.911 106.752C105.087 105.792 102.503 105.363 99.626 104.916C97.2074 104.54 95.272 107.785 93.07 109.378C91.0017 110.875 88.6272 110.908 86.346 110.75C82.4832 110.483 78.5028 109.686 75.1819 106.622C73.5144 105.083 72.0533 103.006 70.2868 101.76C68.6641 100.618 66.8601 100.236 65.0789 100.125C58.9399 99.7462 52.6564 102.424 46.726 99.9415C45.1466 99.2805 43.6246 98.2607 42.0078 97.8677C37.6795 96.8183 33.5208 100.338 29.4833 102.967C17.7429 110.617 4.15882 111.012 -7.82019 104.341C-8.82315 109.455 -9.40542 114.845 -9.74023 120.155C-5.64542 121.029 -1.09829 117.637 3.16907 118.633Z" fill="#D1E8F4"/>
<path d="M175.107 115.108C170.342 113.796 165.604 111.712 160.766 111.916C148.652 112.426 137.74 126.188 125.646 127.352C120.459 127.852 114.853 128.188 110.525 123.739C109.034 122.207 107.756 120.152 106.128 118.998C99.0482 113.979 90.7866 128.338 83.6484 123.52C82.6587 122.851 81.7776 121.844 80.7952 121.148C75.5505 117.428 68.7692 123.238 63.8366 118.606C61.5546 116.464 60.1038 112.376 57.5883 110.998C53.5713 108.798 49.7789 114.459 46.121 117.838C38.0129 125.332 27.7806 121.926 18.3361 122.004C15.1841 122.031 11.9777 122.466 8.92327 121.267C6.98195 120.504 5.14862 119.096 3.16839 118.633C-1.09897 117.637 -5.6461 121.03 -9.74092 120.155C-9.83637 121.667 -9.92226 123.176 -9.9832 124.663C-10.1337 128.317 -9.2732 132.041 -7.37668 134.233C-5.16443 136.789 -2.31341 137.629 0.435558 138.165C3.25648 138.715 6.16775 139.059 8.72802 140.974C12.1238 143.514 14.505 148.593 15.8317 154.057C17.1585 159.52 17.5505 165.405 17.8809 171.218C19.2921 196.049 19.784 221.006 19.3523 245.923C19.3134 248.161 19.3781 250.771 20.5433 252.099C21.8965 253.64 23.9611 252.274 24.7974 250.02C25.6344 247.766 25.5919 245.012 25.528 242.416C24.8444 214.447 24.506 186.457 24.5111 158.468C24.5118 155.848 24.5272 153.138 25.2166 150.745C25.9068 148.352 27.4634 146.35 29.1492 146.61C32.0825 147.062 32.9129 152.996 32.9768 157.555C33.023 160.853 33.0693 164.152 33.1155 167.452C33.1794 172.019 34.0826 178.023 37.0327 178.254C38.8206 178.395 40.3345 175.956 40.8499 173.304C41.3654 170.651 41.14 167.812 41.0291 165.047C40.8059 159.514 41.0629 153.934 41.7905 148.506C42.3676 144.201 43.9205 139.143 46.762 139.082C48.3759 139.048 49.7827 140.741 51.3569 141.293C55.9025 142.889 59.5076 135.023 64.0591 133.469C68.5702 131.93 73.2986 137.661 74.1349 144.689C74.5938 148.537 74.1195 152.728 77.7261 155.306C79.8994 156.86 82.4868 156.857 84.6403 155.238C87.6771 152.955 89.7668 148.608 91.6295 144.191C94.2977 137.869 99.9535 136.34 103.859 140.869C107.614 145.226 109.56 152.176 112.567 157.685C120.21 171.681 135.284 173.93 144.516 162.451C148.157 157.922 150.814 151.802 153.238 145.622C154.078 143.479 154.932 141.257 156.236 139.768C157.54 138.28 159.433 137.713 160.776 139.116C164.242 142.736 160.764 154.008 164.642 156.434C166.181 157.398 168.138 156.095 169.499 157.566C170.313 158.448 170.632 160.056 170.831 161.562C171.359 165.571 171.416 169.741 172.267 173.615C173.118 177.488 175.039 181.195 177.66 181.738C181.974 170.672 179.498 156.55 180.255 143.682C180.453 140.324 181.981 135.603 183.923 134.041C185.294 132.941 186.432 131.224 186.816 128.91C187.578 124.323 187.782 119.533 187.503 114.811C183.575 116.736 179.213 116.238 175.107 115.108Z" fill="#A8D4EB"/>
<path d="M200.793 101.454C214.355 102.124 227.229 112.637 240.794 112.088C243.534 111.978 246.283 111.414 249.008 111.861C258.63 113.443 266.473 127.251 276.136 126.472C279.059 126.236 281.92 124.633 284.842 124.914C287.227 125.142 289.491 126.614 291.856 127.144C294.212 127.672 296.609 127.258 298.974 126.841C301.717 126.358 304.46 125.876 307.202 125.394C308.469 125.17 309.751 124.942 310.937 124.221C312.364 123.354 313.572 121.825 314.842 120.501C325.471 109.429 339.958 112.982 351.669 104.935C353.556 103.638 355.376 102.036 357.378 101.258C362.161 99.4015 367.23 102.481 372.105 101.345C381.31 99.197 390.617 102.343 399.906 103.3C409.1 104.247 418.306 100.362 427.488 101.563C434.331 102.458 441.025 106.165 447.883 105.582C452.635 105.178 457.262 102.717 462.022 102.683C466.629 102.651 471.114 104.893 475.703 105.524C481.041 106.26 486.393 104.805 491.746 104.401C497.1 103.998 502.766 104.794 507.201 109.452C509.482 111.85 512.371 107.805 515.078 106.989C519.826 105.558 524.696 105.479 529.532 105.404C532.634 105.356 535.736 105.307 538.838 105.259C540.386 105.237 541.975 105.222 543.428 106.052C547.262 108.242 549.881 115.996 553.9 114.841C555.642 114.342 556.955 112.208 558.381 110.58C559.807 108.952 561.832 107.793 563.29 109.35C564.088 110.203 564.518 111.694 565.297 112.592C568.183 115.912 571.817 108.752 575.396 109.316C577.374 109.629 578.859 112.263 580.74 113.262C585.532 115.808 591.615 107.472 595.379 112.72C603.118 123.514 616.439 105.882 626.426 110.485C630.338 112.288 633.614 116.666 637.567 118.245C641.771 119.924 646.283 118.258 650.523 119.704C654.28 120.987 657.908 124.689 661.668 123.431C665.765 122.058 668.363 115.223 672.448 113.763C676.466 112.327 680.59 116.545 684.663 115.54C686.563 115.072 688.267 113.502 690.094 112.57C693.864 110.646 698.201 111.615 701.465 115.108C704.366 118.214 708.052 115.652 711.287 113.475C714.524 111.298 717.522 108.015 721.005 107.137C724.584 106.234 728.187 107.99 731.762 108.932C735.914 110.028 740.151 110.032 744.362 110.032C751.263 110.032 758.162 110.032 765.062 110.033C768.094 110.033 771.182 110.02 774.076 108.623C776.804 107.307 779.227 104.823 781.84 103.031C786.427 99.883 791.63 98.9233 796.567 100.313C800.289 101.361 804.709 94.2771 808.361 92.753C812.012 91.2278 815.841 93.1347 819.593 93.8785C830.063 95.9512 841 88.8939 851.071 93.7888C859.154 97.7172 865.293 108.806 873.552 111.728C878.961 113.642 884.582 111.795 890.106 110.969C895.629 110.141 901.718 110.621 905.94 116.192C908.694 119.824 910.296 125.193 913.025 128.871C917.145 134.423 922.887 135.054 928.465 134.021C928.457 119.623 926.881 105.929 922.157 94.1897C914.045 74.0288 898.203 63.9744 882.889 62.2833C867.576 60.5911 852.359 65.9369 837.238 70.0459C806.107 78.508 774.198 81.8084 742.839 75.6756C724.723 72.1322 706.675 65.4486 688.444 67.0499C668.69 68.7864 649.077 80.2229 629.564 75.1633C616.497 71.7755 604.433 61.1318 591.231 59.3862C562.128 55.5373 534.236 95.3073 506.188 82.6851C500.441 80.0991 495.126 75.3871 489.272 73.4564C478.491 69.9017 467.505 76.131 456.573 78.3172C431.447 83.3427 406.662 66.8944 381.367 64.6934C358.185 62.6764 335.366 72.6523 312.381 77.7414C284.781 83.8503 256.533 82.8884 229.134 74.9045C220.054 72.2583 210.742 68.8397 201.685 71.671C193.456 74.2434 185.495 83.8129 184.127 96.2613C188.225 101.968 195.002 101.167 200.793 101.454Z" fill="white"/>
<path d="M910.787 152.417C904.147 145.743 902.093 130.999 895.06 125.369C888.319 119.974 879.957 125.231 872.597 122.36C868.968 120.945 865.796 117.631 862.552 114.744C849.173 102.836 833.352 97.6162 817.997 100.045C794.08 103.827 771.384 125.464 747.559 120.477C743.39 119.605 739.259 117.913 735.054 118.059C725.067 118.405 715.84 129.024 705.905 127.403C699.691 126.389 692.583 121.341 687.38 126.695C683.726 126.851 681.602 134.085 677.974 134.778C675.339 135.281 672.852 132.103 670.214 132.556C667.866 132.959 666.153 136.056 664.103 137.869C659.917 141.57 654.61 139.677 650.195 136.679C645.781 133.682 641.491 129.61 636.682 129.099C632.408 128.644 628.108 131.079 623.883 129.983C620.711 129.16 617.827 126.395 614.628 125.88C610.636 125.239 606.312 128.104 602.736 125.284C601.892 124.62 601.121 123.65 600.189 123.389C598.327 122.869 596.735 125.262 595.13 126.811C591.772 130.049 587.479 129.8 583.605 128.546C579.731 127.292 575.943 125.14 571.989 124.913C568.134 124.691 564.343 126.312 560.503 126.865C553.125 127.926 544.385 126.141 539.164 118.01C537.121 114.828 533.906 114.271 531.027 114.801C528.148 115.331 525.336 116.753 522.437 116.812C519.84 116.865 517.254 115.82 514.665 116.157C511.218 116.604 507.851 119.482 504.466 118.381C502.446 117.724 500.723 115.718 498.775 114.666C495.509 112.903 491.929 113.939 488.51 114.755C483.175 116.029 477.674 116.711 472.413 114.836C468.194 113.333 464.095 110.194 459.778 110.687C455.634 111.161 451.909 114.944 447.786 115.751C441.913 116.902 436.312 111.926 430.453 110.611C426.448 109.711 422.367 110.542 418.384 111.649C408.311 114.45 397.577 117.313 387.537 114.249C376.044 110.743 363.82 107.32 352.888 113.832C349.177 116.042 345.646 119.384 341.687 119.928C337.447 120.51 333.17 117.787 328.979 118.93C320.882 121.138 315.657 136.871 307.458 135.944C306.084 135.789 304.729 135.141 303.354 135.279C300.377 135.578 298.125 139.343 295.947 142.497C293.769 145.65 290.734 148.577 287.972 146.833C285.892 145.518 284.516 141.784 282.275 141.523C280.858 141.357 279.575 142.671 278.263 143.517C274.841 145.723 270.83 144.749 267.519 142.168C264.208 139.586 261.476 135.554 258.879 131.461C256.67 127.979 254.4 124.286 251.421 122.681C248.86 121.301 246.068 121.628 243.358 121.749C235.746 122.087 228.102 120.649 220.764 117.499C218.349 116.462 215.954 115.237 213.471 114.71C208.603 113.677 203.649 115.375 198.748 114.814C192.541 114.102 186.576 109.552 182.357 102.485C180.425 107.776 183.393 117.434 187.222 120.842C191.745 124.871 197.315 124.112 202.506 124.95C207.697 125.79 213.581 129.682 214.599 137.6C215.201 142.285 214.391 148.676 217.224 150.574C220.378 152.688 222.801 145.994 223.682 140.855C224.563 135.716 227.687 129.377 230.497 132.439C232.08 134.163 232.196 138.042 233.826 139.654C237.088 142.881 239.904 133.861 243.65 132.352C246.175 131.334 248.794 134.218 249.944 137.839C251.094 141.461 251.155 145.642 251.309 149.67C251.672 159.174 252.676 168.618 254.301 177.8C254.693 180.019 255.159 182.323 256.216 183.941C258.494 187.428 262.374 186.185 265.143 183.687C267.912 181.188 270.432 177.611 273.599 176.849C277.662 175.872 281.664 179.823 285.758 179.236C295.778 177.798 298.377 152.343 308.388 150.756C310.237 150.462 312.141 151.088 313.942 150.384C315.997 149.58 317.605 147.177 319.111 144.867L325.288 131.752C328.922 126.175 335.171 129.399 335.834 137.251C336.58 146.082 333.158 166.942 337.53 164.465C344.55 159.638 341.279 142.899 343.087 131.359C343.736 127.218 347.596 127.116 348.312 131.232C349.191 136.291 349.78 141.474 350.067 146.696C350.319 151.276 354.203 152.64 355.832 148.794C357.048 145.923 357.802 142.037 357.893 138.667C358.084 131.508 359.059 121.853 363.68 121.356C368.338 119.608 376.536 119.673 381.363 123.861C386.191 128.05 391.365 131.242 396.823 132.67C408.554 135.737 419.347 117.642 431.097 120.537C434.209 121.304 437.147 123.536 440.294 123.801C446.669 124.337 453.579 116.944 458.965 122.244C463.539 126.745 463.335 136.867 463.631 145.239C463.676 146.514 463.777 147.898 464.354 148.81C466.217 151.754 468.745 146.351 469.105 142.27L470.576 125.552C471.023 120.462 475.805 120.58 476.148 125.69L478.141 155.42C478.509 160.904 483.777 160.882 484.025 155.381C484.072 154.338 484.091 153.296 484.088 152.275C484.064 145.241 483.384 137.87 485.209 131.426C487.033 124.982 492.757 120.566 496.218 125.129C497.537 126.866 498.269 129.559 499.722 131.021C503.184 134.505 507.247 128.995 511.177 125.899C513.922 123.735 517.221 126.276 517.71 130.981C517.853 132.362 518.114 133.692 518.573 134.905C519.678 137.826 522.379 139.563 524.125 137.527C525.466 135.964 525.68 133.043 526.396 130.695C528.069 125.209 533.234 123.221 536.375 126.853C552.136 145.079 575.965 151.419 595.182 144.849C601.573 142.664 608.219 137.521 614.316 141.207C616.688 142.641 618.707 145.325 621.148 146.448C628.183 149.686 636.48 139.275 642.617 145.501C647.453 150.408 647.25 162.582 652.1 167.456C657.234 172.617 665.122 166.615 669.75 172.819C671.537 175.218 672.54 179.18 674.772 180.399C678.094 182.212 681.159 176.605 682.179 171.39C683.861 162.795 683.303 153.325 685.71 145.091C687.171 140.094 690.113 136.303 693.594 135.249C698.724 133.695 699.926 139.294 702.499 142.453C706.305 147.125 711.951 145.284 716.258 141.801C720.564 138.317 724.539 133.359 729.331 132.111C737.824 129.9 746.27 139.973 754.694 137.208C775.517 130.374 794.517 115.117 815.263 107.217C820.273 105.309 825.477 105.004 830.609 105.817C836.774 106.794 844.52 107.857 849.662 114.828C851.946 117.926 853.585 122.018 855.811 125.214C861.442 133.293 869.741 134.413 877.341 136.146C884.939 137.881 893.372 141.697 896.892 152.257C898.079 155.818 898.626 159.975 900.368 162.939C902.245 166.135 905.178 167.357 907.225 170.294C910.831 175.472 910.719 184.14 912.04 191.471C912.867 196.056 915.291 200.644 917.953 202.315C920.221 203.74 922.718 201.202 923.099 197.464C924.509 183.65 926.507 168.797 927.633 154.098C921.852 156.701 915.696 157.351 910.787 152.417Z" fill="#A8D4EB"/>
<path d="M928.465 134.022C922.887 135.055 917.144 134.424 913.024 128.871C910.295 125.194 908.693 119.824 905.939 116.192C901.717 110.622 895.628 110.141 890.105 110.969C884.582 111.796 878.961 113.643 873.551 111.729C865.292 108.807 859.153 97.7178 851.07 93.7894C841 88.8945 830.063 95.9518 819.592 93.8791C815.84 93.1352 812.012 91.2284 808.36 92.7536C804.708 94.2777 800.289 101.361 796.566 100.314C791.629 98.9239 786.426 99.8835 781.839 103.032C779.227 104.824 776.804 107.308 774.075 108.624C771.181 110.021 768.093 110.033 765.062 110.033C758.161 110.032 751.262 110.032 744.362 110.032C740.15 110.032 735.913 110.029 731.761 108.933C728.186 107.99 724.583 106.234 721.004 107.137C717.521 108.015 714.523 111.298 711.287 113.476C708.051 115.653 704.366 118.215 701.464 115.109C698.2 111.615 693.863 110.647 690.094 112.571C688.266 113.503 686.563 115.073 684.662 115.54C680.59 116.546 676.466 112.327 672.447 113.764C668.363 115.223 665.764 122.058 661.667 123.431C657.907 124.69 654.279 120.987 650.522 119.705C646.283 118.258 641.77 119.924 637.567 118.246C633.613 116.667 630.337 112.289 626.425 110.485C616.438 105.882 603.118 123.514 595.378 112.72C591.615 107.472 585.531 115.808 580.739 113.262C578.859 112.264 577.373 109.629 575.395 109.317C571.817 108.752 568.182 115.913 565.297 112.592C564.518 111.695 564.087 110.204 563.289 109.351C561.831 107.794 559.806 108.952 558.38 110.581C556.954 112.208 555.642 114.342 553.899 114.842C549.881 115.997 547.262 108.242 543.427 106.053C541.975 105.223 540.386 105.237 538.837 105.26C535.736 105.308 532.634 105.357 529.532 105.404C524.695 105.479 519.826 105.559 515.077 106.99C512.37 107.805 509.481 111.85 507.2 109.453C502.766 104.794 497.099 103.998 491.746 104.401C486.392 104.806 481.041 106.261 475.702 105.525C471.114 104.893 466.628 102.651 462.022 102.683C457.262 102.717 452.635 105.178 447.882 105.582C441.024 106.165 434.33 102.458 427.487 101.563C418.305 100.363 409.099 104.248 399.905 103.301C390.616 102.343 381.309 99.1976 372.104 101.345C367.229 102.482 362.16 99.4021 357.377 101.259C355.375 102.037 353.556 103.638 351.669 104.935C339.958 112.983 325.471 109.429 314.842 120.501C313.571 121.825 312.363 123.355 310.936 124.222C309.751 124.943 308.468 125.171 307.201 125.395C304.459 125.876 301.717 126.359 298.973 126.842C296.608 127.259 294.211 127.673 291.855 127.145C289.49 126.615 287.226 125.143 284.841 124.915C281.919 124.634 279.058 126.236 276.135 126.473C266.472 127.252 258.63 113.444 249.007 111.862C246.282 111.414 243.534 111.979 240.794 112.089C227.229 112.637 214.355 102.124 200.792 101.454C195.002 101.168 188.225 101.969 184.126 96.2619C183.989 97.5123 183.895 98.7808 183.897 100.086C183.199 100.693 182.706 101.527 182.356 102.485C186.575 109.553 192.54 114.103 198.748 114.815C203.649 115.376 208.602 113.678 213.471 114.71C215.954 115.237 218.348 116.463 220.763 117.5C228.101 120.65 235.745 122.088 243.357 121.749C246.068 121.629 248.859 121.302 251.42 122.682C254.399 124.286 256.669 127.98 258.878 131.462C261.475 135.555 264.208 139.587 267.518 142.168C270.829 144.75 274.841 145.724 278.262 143.517C279.574 142.671 280.858 141.357 282.274 141.523C284.516 141.784 285.891 145.518 287.972 146.834C290.733 148.578 293.768 145.65 295.946 142.497C298.125 139.344 300.377 135.579 303.353 135.28C304.728 135.141 306.083 135.79 307.458 135.944C315.657 136.871 320.881 121.138 328.978 118.93C333.17 117.788 337.446 120.51 341.686 119.929C345.646 119.385 349.177 116.042 352.887 113.832C363.819 107.32 376.043 110.743 387.536 114.249C397.577 117.313 408.31 114.45 418.383 111.65C422.367 110.542 426.447 109.712 430.453 110.611C436.311 111.927 441.913 116.902 447.786 115.752C451.908 114.944 455.633 111.161 459.777 110.688C464.094 110.195 468.194 113.334 472.413 114.836C477.673 116.711 483.174 116.03 488.509 114.756C491.928 113.939 495.508 112.903 498.774 114.667C500.722 115.719 502.446 117.724 504.465 118.382C507.85 119.482 511.217 116.605 514.664 116.157C517.253 115.821 519.839 116.866 522.437 116.812C525.335 116.753 528.147 115.331 531.026 114.801C533.905 114.272 537.12 114.828 539.163 118.011C544.384 126.141 553.125 127.926 560.502 126.866C564.342 126.313 568.133 124.692 571.988 124.913C575.942 125.141 579.73 127.293 583.604 128.546C587.478 129.8 591.771 130.049 595.129 126.811C596.734 125.262 598.326 122.869 600.188 123.389C601.12 123.65 601.891 124.62 602.735 125.285C606.312 128.105 610.635 125.239 614.628 125.881C617.827 126.395 620.71 129.161 623.882 129.983C628.107 131.079 632.407 128.644 636.681 129.1C641.49 129.611 645.78 133.682 650.195 136.679C654.609 139.677 659.917 141.571 664.102 137.869C666.152 136.057 667.865 132.96 670.213 132.557C672.851 132.104 675.338 135.281 677.973 134.778C681.601 134.085 683.725 126.852 687.379 126.695C692.583 121.342 699.69 126.39 705.905 127.404C715.839 129.025 725.066 118.406 735.053 118.059C739.259 117.914 743.389 119.605 747.558 120.477C771.383 125.464 794.079 103.828 817.996 100.046C833.351 97.6167 849.173 102.836 862.551 114.744C865.796 117.631 868.967 120.945 872.596 122.36C879.956 125.231 888.318 119.974 895.059 125.37C902.092 131 904.146 145.743 910.786 152.418C915.696 157.351 921.851 156.702 927.632 154.099C928.151 147.331 928.468 140.606 928.465 134.022Z" fill="#D1E8F4"/>
</svg>
